# xmcd
#
# Track frame offsets: 
#        150
#        14655
#        34445
#        56100
#        73095
#        92720
#        111477
#        137317
#        155057
#        175940
#        208395
#        225705
#        244312
#        262447
#
# Disc length: 4437 seconds
#
# Revision: 33
# Processed by: cddbd v1.5.2PL0 Copyright (c) Steve Scherf et al.
# Submitted via: ExactAudioCopy v1.3
#
DISCID=e011530e
DTITLE=Robbie Williams - Escapology
DYEAR=2002
DGENRE=Pop
TTITLE0=How peculiar
TTITLE1=Feel
TTITLE2=Something beautiful
TTITLE3=Monsoon
TTITLE4=Sexed up
TTITLE5=Love somebody
TTITLE6=Revolution
TTITLE7=Handsome man
TTITLE8=Come undone
TTITLE9=Me and my monkey
TTITLE10=Song 3
TTITLE11=Hot fudge
TTITLE12=Cursed
TTITLE13=Nan's song
EXTD=
EXTT0=
EXTT1=
EXTT2=
EXTT3=
EXTT4=
EXTT5=
EXTT6=
EXTT7=
EXTT8=
EXTT9=
EXTT10=
EXTT11=
EXTT12=
EXTT13=
PLAYORDER=
